<svg xmlns="http://www.w3.org/2000/svg" fill="none" viewBox="0 0 73 26" aria-label="Cham">
  <path fill="currentColor" d="M6.27844 6.9419V2.60321C6.27844 2.21755 6.21405 1.90688 6.08526 1.6712C5.97794 1.43552 5.83842 1.2534 5.6667 1.12485C5.49498 0.974867 5.3018 0.878452 5.08715 0.8356C4.89397 0.792749 4.71152 0.771324 4.5398 0.771324C4.36808 0.771324 4.1749 0.792749 3.96025 0.8356C3.7456 0.878452 3.55242 0.974867 3.3807 1.12485C3.20898 1.2534 3.05873 1.43552 2.92994 1.6712C2.82262 1.90688 2.76896 2.21755 2.76896 2.60321V23.4289C2.76896 23.8146 2.82262 24.1253 2.92994 24.3609C3.05873 24.5966 3.20898 24.7787 3.3807 24.9073C3.55242 25.0358 3.7456 25.1215 3.96025 25.1644C4.1749 25.2072 4.36808 25.2287 4.5398 25.2287C4.71152 25.2287 4.89397 25.2072 5.08715 25.1644C5.3018 25.1215 5.49498 25.0358 5.6667 24.9073C5.83842 24.7787 5.97794 24.5966 6.08526 24.3609C6.21405 24.1253 6.27844 23.8146 6.27844 23.4289V20.0222L6.72921 19.8937L7.34095 19.7651L7.79171 19.6366L8.59664 19.4438C8.6181 19.4438 8.62884 19.433 8.62884 19.4116L8.72543 19.4438C8.94008 19.5937 9.0474 19.7759 9.0474 19.9901V23.3004C9.0474 23.6218 8.91861 23.8574 8.66104 24.0074L7.98489 24.4895C7.72732 24.6609 7.49121 24.8216 7.27656 24.9716C7.06191 25.1001 6.86873 25.218 6.69701 25.3251H6.66481V25.3572C6.23552 25.6143 5.85988 25.7857 5.53791 25.8714C5.21594 25.9571 4.88323 26 4.5398 26C4.1749 26 3.83146 25.9571 3.50949 25.8714C3.20898 25.7857 2.83335 25.6143 2.38259 25.3572V25.3251C2.21087 25.218 2.01769 25.1001 1.80304 24.9716C1.58839 24.8216 1.35228 24.6609 1.0947 24.4895L0.386366 24.0074C0.279042 23.9431 0.182451 23.8574 0.0965915 23.7503C0.0321972 23.6218 0 23.4718 0 23.3004V2.73177C0 2.43181 0.128789 2.19613 0.386366 2.02472L0.90152 1.6712C1.39521 1.34982 1.81377 1.082 2.15721 0.867738C2.50065 0.653482 2.80115 0.49279 3.05873 0.385662C3.33777 0.257109 3.58462 0.171406 3.79926 0.128554C4.03538 0.064278 4.28222 0.0321399 4.5398 0.0321399C4.79738 0.0321399 5.03349 0.064278 5.24814 0.128554C5.48425 0.171406 5.73109 0.257109 5.98867 0.385662C6.26771 0.49279 6.56822 0.653482 6.89019 0.867738C7.23363 1.082 7.65219 1.34982 8.14588 1.6712L8.66104 2.02472C8.91861 2.19613 9.0474 2.43181 9.0474 2.73177V7.55253C9.0474 7.83107 8.94008 8.01319 8.72543 8.09889L7.11557 8.48455L6.27844 6.9419Z" />
  <path fill="currentColor" d="M28.738 0.160694V24.7145C28.738 24.8216 28.6843 24.9287 28.577 25.0358C28.4911 25.143 28.3945 25.218 28.2872 25.2608L27.4823 25.4858L27.0315 25.5822L26.4198 25.7429L25.969 25.8393V14.398L22.2985 15.2979V24.7145C22.2985 24.8216 22.2556 24.9287 22.1698 25.0358C22.0839 25.143 21.9766 25.218 21.8478 25.2608L21.0429 25.4858L20.5921 25.5822L19.9803 25.7429L19.5296 25.8393V0.160694H22.2985V14.398L25.969 13.466V0.160694H28.738Z" />
  <path fill="currentColor" d="M45.2146 16.8405L43.0896 2.63535L40.8036 17.9654L45.2146 16.8405ZM45.3756 17.7404L40.6426 18.9295L39.5479 25.8393H38.582L42.3491 1.31768L42.4135 0.964154C42.4779 0.814174 42.6066 0.696333 42.7998 0.610632L43.6369 0.4178L44.4419 0.192832L44.8926 0.096416L45.279 0H45.3434L46.0195 4.30655L49.4646 25.8393H46.6635L45.3756 17.7404Z" />
  <path fill="currentColor" d="M73 0.160694V24.7145C73 24.8216 72.9571 24.9287 72.8712 25.0358C72.7854 25.143 72.678 25.218 72.5492 25.2608L71.7443 25.4858L71.2936 25.5822L70.6818 25.7429L70.231 25.8393V2.37825C70.1666 2.35682 70.0701 2.41038 69.9413 2.53894C69.8339 2.64607 69.7374 2.98888 69.6515 3.56737C69.6086 4.01731 69.469 5.06716 69.2329 6.71694C69.1256 7.42398 68.9968 8.30243 68.8466 9.35229C68.6963 10.3807 68.5139 11.6234 68.2992 13.0803C68.0846 14.5373 67.8377 16.2299 67.5587 18.1582C67.2796 20.0865 66.9577 22.2827 66.5928 24.7466L66.5284 25.068C66.464 25.2608 66.3352 25.3787 66.142 25.4215L64.5 25.8393H64.4355L63.8238 21.9827L60.9905 3.56737C60.9475 3.20313 60.8831 2.94602 60.7973 2.79604C60.7329 2.62464 60.6148 2.51751 60.4431 2.47466V25.8393H59.5094V0.160694H60.4431C60.8939 0.160694 61.291 0.182119 61.6344 0.22497C61.9778 0.246395 62.2783 0.332098 62.5359 0.482078C62.7935 0.632057 62.9974 0.857026 63.1477 1.15698C63.3194 1.45694 63.4482 1.86403 63.534 2.37825L66.303 20.5043L66.5928 18.576C66.8718 16.6263 67.1187 14.9015 67.3333 13.4017C67.5694 11.9019 67.7626 10.595 67.9128 9.48084C68.0846 8.34528 68.2241 7.38113 68.3314 6.58838C68.4602 5.79563 68.5675 5.13144 68.6534 4.5958C68.8466 3.35311 68.9646 2.5925 69.0076 2.31397C69.0505 2.03543 69.1041 1.76762 69.1685 1.51051C69.2544 1.2534 69.3617 1.02843 69.4905 0.8356C69.6408 0.621344 69.8339 0.460652 70.0701 0.353524C70.3276 0.224971 70.6496 0.160694 71.036 0.160694H73Z" />
</svg>
